<svg viewBox="0 0 14 24" focusable="false">
    <mask id=":rs:" fill="white">
        <path fill-rule="evenodd" clip-rule="evenodd" d="M4.18901 1.70986e-07C3.91851 1.59161e-07 3.69922 0.219288 3.69922 0.489794L3.69922 3.42969L0.767138 3.42969C0.496632 3.42969 0.277344 3.64898 0.277344 3.91948L0.277343 23.5113C0.277343 23.7818 0.496631 24.0011 0.767137 24.0011L13.5017 24.0011C13.7723 24.0011 13.9915 23.7818 13.9915 23.5113L13.9915 3.91948C13.9915 3.64898 13.7723 3.42969 13.5017 3.42969L10.5563 3.42969L10.5563 0.489795C10.5563 0.219289 10.337 4.39726e-07 10.0665 4.27902e-07L4.18901 1.70986e-07Z"></path>
    </mask>
        <path d="M4.18901 1.70986e-07L4.18901 -2L4.18901 1.70986e-07ZM3.69922 3.42969L3.69922 5.42969L5.69922 5.42969L5.69922 3.42969L3.69922 3.42969ZM0.767137 24.0011L0.767137 22.0011L0.767137 24.0011ZM13.5017 24.0011L13.5017 26.0011L13.5017 24.0011ZM13.5017 3.42969L13.5017 5.42969L13.5017 3.42969ZM10.5563 3.42969L8.55632 3.42969L8.55632 5.42969L10.5563 5.42969L10.5563 3.42969ZM10.0665 4.27902e-07L10.0665 2L10.0665 4.27902e-07ZM5.69922 0.489794C5.69922 1.32386 5.02308 2 4.18901 2L4.18901 -2C2.81394 -2 1.69922 -0.885283 1.69922 0.489794L5.69922 0.489794ZM5.69922 3.42969L5.69922 0.489794L1.69922 0.489794L1.69922 3.42969L5.69922 3.42969ZM0.767138 5.42969L3.69922 5.42969L3.69922 1.42969L0.767138 1.42969L0.767138 5.42969ZM2.27734 3.91948C2.27734 4.75355 1.6012 5.42969 0.767138 5.42969L0.767138 1.42969C-0.607932 1.42969 -1.72266 2.5444 -1.72266 3.91948L2.27734 3.91948ZM2.27734 23.5113L2.27734 3.91948L-1.72266 3.91948L-1.72266 23.5113L2.27734 23.5113ZM0.767137 22.0011C1.6012 22.0011 2.27734 22.6772 2.27734 23.5113L-1.72266 23.5113C-1.72266 24.8864 -0.607935 26.0011 0.767137 26.0011L0.767137 22.0011ZM13.5017 22.0011L0.767137 22.0011L0.767137 26.0011L13.5017 26.0011L13.5017 22.0011ZM11.9915 23.5113C11.9915 22.6773 12.6677 22.0011 13.5017 22.0011L13.5017 26.0011C14.8768 26.0011 15.9915 24.8864 15.9915 23.5113L11.9915 23.5113ZM11.9915 3.91948L11.9915 23.5113L15.9915 23.5113L15.9915 3.91948L11.9915 3.91948ZM13.5017 5.42969C12.6677 5.42969 11.9915 4.75354 11.9915 3.91948L15.9915 3.91948C15.9915 2.54441 14.8768 1.42969 13.5017 1.42969L13.5017 5.42969ZM10.5563 5.42969L13.5017 5.42969L13.5017 1.42969L10.5563 1.42969L10.5563 5.42969ZM8.55632 0.489795L8.55632 3.42969L12.5563 3.42969L12.5563 0.489795L8.55632 0.489795ZM10.0665 2C9.23246 2 8.55632 1.32386 8.55632 0.489795L12.5563 0.489795C12.5563 -0.885279 11.4416 -2 10.0665 -2L10.0665 2ZM4.18901 2L10.0665 2L10.0665 -2L4.18901 -2L4.18901 2Z" fill="black" fill-opacity="0.1" mask="url(#:rs:)"></path>
</svg>