<svg viewBox="0 0 48 48" xmlns="http://www.w3.org/2000/svg" width="48" height="48">
    {/* <!-- Outer Circle with Light Gray Border --> */}
    <rect x="1" y="1" width="46" height="46" rx="23" stroke="#D3D3D3" stroke-width="2" fill="none"></rect>

    {/* <!-- Lightning Bolt with Gray Fill --> */}
    <path fill="#E5E5E5" fill-opacity="1" d="M31.6286 19.5H25.5087L27.7773 13.4531C27.9883 12.7031 27.3552 12 26.5639 12H18.9668C18.3337 12 17.7534 12.4219 17.7006 12.9844L16.0124 24.2344C15.9069 24.9375 16.4872 25.5 17.2786 25.5H23.504L21.0771 34.6406C20.9188 35.3438 21.4992 36 22.2905 36C22.7654 36 23.1874 35.8125 23.3984 35.4375L32.6838 21.1875C33.2113 20.4844 32.5782 19.5 31.6286 19.5Z"></path>

    {/* <!-- Outer Circle with Darker Gray Border --> */}
    <rect x="1" y="1" width="46" height="46" rx="23" stroke="#A9A9A9" stroke-width="2" fill="none"></rect>
</svg>