<svg viewBox="0 0 32 33" focusable="false" class="chakra-icon css-1h4ks3u" xmlns="http://www.w3.org/2000/svg"><circle cx="15.9015" cy="16.6523" r="3.69358" transform="rotate(135 15.9015 16.6523)" fill="#F7C325"></circle><path fill-rule="evenodd" clip-rule="evenodd" d="M22.8267 23.5303C18.9745 27.3825 12.7288 27.3826 8.87657 23.5305C5.02431 19.6783 5.02425 13.4328 8.87644 9.58059C12.7286 5.7284 18.9743 5.72835 22.8266 9.58047C26.6788 13.4326 26.6789 19.6782 22.8267 23.5303ZM17.4067 18.0943C16.5507 18.9503 15.1628 18.9503 14.3067 18.0943C13.4507 17.2383 13.4506 15.8504 14.3067 14.9943C15.1627 14.1383 16.5507 14.1383 17.4067 14.9943C18.2628 15.8503 18.2628 17.2382 17.4067 18.0943Z" fill="#F7C325"></path><circle cx="15.9015" cy="16.6523" r="3.69358" transform="rotate(135 15.9015 16.6523)" fill="#F7C325"></circle><path fill-rule="evenodd" clip-rule="evenodd" d="M22.8267 23.5303C18.9745 27.3825 12.7288 27.3826 8.87657 23.5305C5.02431 19.6783 5.02425 13.4328 8.87644 9.58059C12.7286 5.7284 18.9743 5.72835 22.8266 9.58047C26.6788 13.4326 26.6789 19.6782 22.8267 23.5303ZM17.4067 18.0943C16.5507 18.9503 15.1628 18.9503 14.3067 18.0943C13.4507 17.2383 13.4506 15.8504 14.3067 14.9943C15.1627 14.1383 16.5507 14.1383 17.4067 14.9943C18.2628 15.8503 18.2628 17.2382 17.4067 18.0943Z" fill="#F7C325"></path><rect x="18.082" y="28.6719" width="4.50102" height="24.2314" transform="rotate(180 18.082 28.6719)" fill="#F7C325"></rect><rect x="3.71484" y="18.8066" width="4.50102" height="24.2314" transform="rotate(-90 3.71484 18.8066)" fill="#F7C325"></rect><rect x="8.85547" y="26.7148" width="4.50102" height="24.2314" transform="rotate(-135 8.85547 26.7148)" fill="#F7C325"></rect><rect x="5.67578" y="9.58008" width="4.50102" height="24.2314" transform="rotate(-45 5.67578 9.58008)" fill="#F7C325"></rect><path d="M17.6649 16.4361H13.9492L14.5685 15.0736V11.7295H17.0456V15.0736L17.6649 16.4361Z" fill="white"></path><path d="M17.839 16.2891H13.8329L11.4648 20.2127L12.4913 21.555H19.282L20.1506 20.2127L17.839 16.2891Z" fill="black"></path><path d="M11.4648 20.2885L12.3965 21.5546H19.2906L20.1506 20.2885L17.1407 15.1338V11.6055H14.5178V15.1338L11.4648 20.2885Z" stroke="white" stroke-width="1.2"></path></svg>